<?xml version="1.0" encoding="iso-8859-1"?>
<!-- Generator: Adobe Illustrator 19.0.0, SVG Export Plug-In . SVG Version: 6.00 Build 0)  -->
<svg version="1.1" id="Layer_1" xmlns="http://www.w3.org/2000/svg" xmlns:xlink="http://www.w3.org/1999/xlink" x="0px" y="0px"
	 viewBox="0 0 512 512" style="enable-background:new 0 0 512 512;" xml:space="preserve">
<g>
	<g>
		<path d="M146.873,375.904l-39.619-31.817H57.265v161.609H87.32v-70.319l28.432,22.875v47.444h30.055v-61.839l-19.865-15.981
			l20.932-16.839V375.904z M116.819,396.641l-29.5,23.731v-46.231h9.361l20.139,16.172V396.641z"/>
	</g>
</g>
<g>
	<g>
		<polygon points="321.132,459.629 321.132,475.014 289.56,475.014 289.56,354.205 259.505,354.205 259.505,505.068 
			351.187,505.068 351.187,459.629 		"/>
	</g>
</g>
<g>
	<g>
		<polygon points="424.68,459.629 424.68,475.014 393.108,475.014 393.108,354.205 363.053,354.205 363.053,505.068 
			454.735,505.068 454.735,459.629 		"/>
	</g>
</g>
<g>
	<g>
		<path d="M203.19,352.81l-44.093,35.41v88.37L203.19,512l44.093-35.41v-88.37L203.19,352.81z M217.227,462.179l-14.039,11.273
			l-14.039-11.273V402.63l14.039-11.273l14.039,11.273V462.179z"/>
	</g>
</g>
<g>
	<g>
		<path d="M146.873,31.818L107.255,0h-49.99v161.609H87.32V91.291l28.432,22.875v47.444h30.055V99.77l-19.865-15.981l20.932-16.839
			V31.818z M116.819,52.555l-29.5,23.731V30.055h9.361l20.139,16.173V52.555z"/>
	</g>
</g>
<g>
	<g>
		<path d="M203.19,2.61l-44.093,35.41v88.37l44.093,35.41l44.092-35.41V38.02L203.19,2.61z M217.228,111.98l-14.039,11.275
			l-14.039-11.273V52.43l14.039-11.273l14.039,11.273V111.98z"/>
	</g>
</g>
<g>
	<g>
		<polygon points="304.207,123.254 290.169,111.98 290.169,52.43 304.207,41.157 323.864,56.942 342.683,33.509 304.207,2.61 
			260.114,38.02 260.114,126.39 304.207,161.8 342.683,130.902 323.864,107.468 		"/>
	</g>
</g>
<g>
	<g>
		<polygon points="397.914,65.278 439.714,31.709 420.894,8.276 388.951,33.929 388.951,0.498 358.897,0.498 358.897,163.316 
			388.951,163.316 388.951,96.639 413.273,116.198 413.273,163.316 443.328,163.316 443.328,101.8 		"/>
	</g>
</g>
<g>
	<g>
		<path d="M283.876,243.543v-7.992h-30.055v7.992h-9.557l-20.145-16.205v-6.328l14.851-11.927l20.469,16.438l18.819-23.434
			l-39.288-31.551L194.065,206.6v35.132l20.931,16.839l-20.931,16.839v35.133l44.906,36.064l44.906-36.064v-36.944h9.628v-30.055
			H283.876z M253.822,296.131l-14.851,11.927l-14.851-11.927v-6.328h0l20.145-16.205h9.557V296.131z"/>
	</g>
</g>
<g>
</g>
<g>
</g>
<g>
</g>
<g>
</g>
<g>
</g>
<g>
</g>
<g>
</g>
<g>
</g>
<g>
</g>
<g>
</g>
<g>
</g>
<g>
</g>
<g>
</g>
<g>
</g>
<g>
</g>
</svg>
